<svg width="138" height="52" viewBox="0 0 138 52" fill="none" xmlns="http://www.w3.org/2000/svg">
<rect y="0.865784" width="138" height="50.1342" rx="22.5" fill="#FAFAFA"/>
<path d="M42.3605 25.9329C42.3605 37.776 33.1567 47.2718 21.9302 47.2718C10.7037 47.2718 1.5 37.776 1.5 25.9329C1.5 14.0898 10.7037 4.59397 21.9302 4.59397C33.1567 4.59397 42.3605 14.0898 42.3605 25.9329Z" fill="#D5E14F" stroke="#2D5BE3" stroke-width="3"/>
<path d="M31.7834 34.9996V19.7649H12.0771V34.9996L11.7675 37.6309H12.0771H31.7834H32.093L31.7834 34.9996Z" fill="#2D5BE3"/>
<path d="M21.9302 25.3758L22.7708 28.0702H25.4912L23.2904 29.7354L24.131 32.4298L21.9302 30.7646L19.7294 32.4298L20.5701 29.7354L18.3693 28.0702H21.0896L21.9302 25.3758Z" fill="#FFE600"/>
<path d="M27.2204 19.3442H25.5093V18.4781C25.5093 16.482 23.9041 14.853 21.9322 14.853C19.9604 14.853 18.3511 16.4779 18.3511 18.4781V19.3442H16.64V18.4781C16.6359 15.5252 19.0111 13.1208 21.9282 13.1208C24.8452 13.1208 27.2204 15.5252 27.2204 18.4781V19.3442Z" fill="#2D5BE3"/>
<path d="M18.074 21.3032C18.074 21.629 17.8133 21.8888 17.4955 21.8888C17.1737 21.8888 16.917 21.6249 16.917 21.3032C16.917 20.9774 17.1777 20.7176 17.4955 20.7176C17.8133 20.7134 18.074 20.9774 18.074 21.3032Z" fill="white"/>
<path d="M26.9433 21.3032C26.9433 21.629 26.6826 21.8888 26.3648 21.8888C26.0429 21.8888 25.7863 21.6249 25.7863 21.3032C25.7863 20.9774 26.047 20.7176 26.3648 20.7176C26.6866 20.7134 26.9433 20.9774 26.9433 21.3032Z" fill="white"/>
<path d="M63.5107 24H62.7197V18.9414C62.7197 18.7493 62.7197 18.585 62.7197 18.4482C62.723 18.3083 62.7262 18.1813 62.7295 18.0674C62.736 17.9502 62.7441 17.8314 62.7539 17.7109C62.653 17.8151 62.5586 17.9046 62.4707 17.9795C62.3828 18.0511 62.2738 18.1406 62.1436 18.248L61.3281 18.9023L60.9033 18.3506L62.8369 16.8613H63.5107V24ZM66.4551 23.4922C66.4551 23.2643 66.5104 23.1032 66.6211 23.0088C66.7318 22.9111 66.8669 22.8623 67.0264 22.8623C67.1924 22.8623 67.3324 22.9111 67.4463 23.0088C67.5602 23.1032 67.6172 23.2643 67.6172 23.4922C67.6172 23.7168 67.5602 23.8812 67.4463 23.9854C67.3324 24.0863 67.1924 24.1367 67.0264 24.1367C66.8669 24.1367 66.7318 24.0863 66.6211 23.9854C66.5104 23.8812 66.4551 23.7168 66.4551 23.4922ZM73.5596 20.4209C73.5596 21.0003 73.5156 21.5179 73.4277 21.9736C73.3398 22.4294 73.2015 22.8151 73.0127 23.1309C72.8239 23.4466 72.5798 23.6875 72.2803 23.8535C71.9808 24.0163 71.6211 24.0977 71.2012 24.0977C70.6706 24.0977 70.2311 23.9528 69.8828 23.6631C69.5378 23.3734 69.279 22.9551 69.1064 22.4082C68.9372 21.8581 68.8525 21.1956 68.8525 20.4209C68.8525 19.6592 68.929 19.0049 69.082 18.458C69.2383 17.9079 69.4889 17.4863 69.834 17.1934C70.179 16.8971 70.6348 16.749 71.2012 16.749C71.7383 16.749 72.181 16.8955 72.5293 17.1885C72.8776 17.4782 73.1364 17.8981 73.3057 18.4482C73.4749 18.9951 73.5596 19.6527 73.5596 20.4209ZM69.668 20.4209C69.668 21.085 69.7184 21.6383 69.8193 22.0811C69.9202 22.5238 70.083 22.8558 70.3076 23.0771C70.5355 23.2952 70.8333 23.4043 71.2012 23.4043C71.569 23.4043 71.8652 23.2952 72.0898 23.0771C72.3177 22.859 72.4821 22.5286 72.583 22.0859C72.6872 21.6432 72.7393 21.0882 72.7393 20.4209C72.7393 19.7666 72.6888 19.2197 72.5879 18.7803C72.487 18.3376 72.3242 18.0055 72.0996 17.7842C71.875 17.5596 71.5755 17.4473 71.2012 17.4473C70.8268 17.4473 70.5273 17.5596 70.3027 17.7842C70.0781 18.0055 69.9154 18.3376 69.8145 18.7803C69.7168 19.2197 69.668 19.7666 69.668 20.4209ZM79.2822 20.4209C79.2822 21.0003 79.2383 21.5179 79.1504 21.9736C79.0625 22.4294 78.9242 22.8151 78.7354 23.1309C78.5465 23.4466 78.3024 23.6875 78.0029 23.8535C77.7035 24.0163 77.3438 24.0977 76.9238 24.0977C76.3932 24.0977 75.9538 23.9528 75.6055 23.6631C75.2604 23.3734 75.0016 22.9551 74.8291 22.4082C74.6598 21.8581 74.5752 21.1956 74.5752 20.4209C74.5752 19.6592 74.6517 19.0049 74.8047 18.458C74.9609 17.9079 75.2116 17.4863 75.5566 17.1934C75.9017 16.8971 76.3574 16.749 76.9238 16.749C77.4609 16.749 77.9036 16.8955 78.252 17.1885C78.6003 17.4782 78.859 17.8981 79.0283 18.4482C79.1976 18.9951 79.2822 19.6527 79.2822 20.4209ZM75.3906 20.4209C75.3906 21.085 75.4411 21.6383 75.542 22.0811C75.6429 22.5238 75.8057 22.8558 76.0303 23.0771C76.2581 23.2952 76.556 23.4043 76.9238 23.4043C77.2917 23.4043 77.5879 23.2952 77.8125 23.0771C78.0404 22.859 78.2048 22.5286 78.3057 22.0859C78.4098 21.6432 78.4619 21.0882 78.4619 20.4209C78.4619 19.7666 78.4115 19.2197 78.3105 18.7803C78.2096 18.3376 78.0469 18.0055 77.8223 17.7842C77.5977 17.5596 77.2982 17.4473 76.9238 17.4473C76.5495 17.4473 76.25 17.5596 76.0254 17.7842C75.8008 18.0055 75.638 18.3376 75.5371 18.7803C75.4395 19.2197 75.3906 19.7666 75.3906 20.4209ZM85.0049 20.4209C85.0049 21.0003 84.9609 21.5179 84.873 21.9736C84.7852 22.4294 84.6468 22.8151 84.458 23.1309C84.2692 23.4466 84.0251 23.6875 83.7256 23.8535C83.4261 24.0163 83.0664 24.0977 82.6465 24.0977C82.1159 24.0977 81.6764 23.9528 81.3281 23.6631C80.9831 23.3734 80.7243 22.9551 80.5518 22.4082C80.3825 21.8581 80.2979 21.1956 80.2979 20.4209C80.2979 19.6592 80.3743 19.0049 80.5273 18.458C80.6836 17.9079 80.9342 17.4863 81.2793 17.1934C81.6243 16.8971 82.0801 16.749 82.6465 16.749C83.1836 16.749 83.6263 16.8955 83.9746 17.1885C84.3229 17.4782 84.5817 17.8981 84.751 18.4482C84.9202 18.9951 85.0049 19.6527 85.0049 20.4209ZM81.1133 20.4209C81.1133 21.085 81.1637 21.6383 81.2646 22.0811C81.3656 22.5238 81.5283 22.8558 81.7529 23.0771C81.9808 23.2952 82.2786 23.4043 82.6465 23.4043C83.0143 23.4043 83.3105 23.2952 83.5352 23.0771C83.763 22.859 83.9274 22.5286 84.0283 22.0859C84.1325 21.6432 84.1846 21.0882 84.1846 20.4209C84.1846 19.7666 84.1341 19.2197 84.0332 18.7803C83.9323 18.3376 83.7695 18.0055 83.5449 17.7842C83.3203 17.5596 83.0208 17.4473 82.6465 17.4473C82.2721 17.4473 81.9727 17.5596 81.748 17.7842C81.5234 18.0055 81.3607 18.3376 81.2598 18.7803C81.1621 19.2197 81.1133 19.7666 81.1133 20.4209ZM86.25 23.4922C86.25 23.2643 86.3053 23.1032 86.416 23.0088C86.5267 22.9111 86.6618 22.8623 86.8213 22.8623C86.9873 22.8623 87.1273 22.9111 87.2412 23.0088C87.3551 23.1032 87.4121 23.2643 87.4121 23.4922C87.4121 23.7168 87.3551 23.8812 87.2412 23.9854C87.1273 24.0863 86.9873 24.1367 86.8213 24.1367C86.6618 24.1367 86.5267 24.0863 86.416 23.9854C86.3053 23.8812 86.25 23.7168 86.25 23.4922ZM93.3545 20.4209C93.3545 21.0003 93.3105 21.5179 93.2227 21.9736C93.1348 22.4294 92.9964 22.8151 92.8076 23.1309C92.6188 23.4466 92.3747 23.6875 92.0752 23.8535C91.7757 24.0163 91.416 24.0977 90.9961 24.0977C90.4655 24.0977 90.026 23.9528 89.6777 23.6631C89.3327 23.3734 89.0739 22.9551 88.9014 22.4082C88.7321 21.8581 88.6475 21.1956 88.6475 20.4209C88.6475 19.6592 88.724 19.0049 88.877 18.458C89.0332 17.9079 89.2839 17.4863 89.6289 17.1934C89.974 16.8971 90.4297 16.749 90.9961 16.749C91.5332 16.749 91.9759 16.8955 92.3242 17.1885C92.6725 17.4782 92.9313 17.8981 93.1006 18.4482C93.2699 18.9951 93.3545 19.6527 93.3545 20.4209ZM89.4629 20.4209C89.4629 21.085 89.5133 21.6383 89.6143 22.0811C89.7152 22.5238 89.8779 22.8558 90.1025 23.0771C90.3304 23.2952 90.6283 23.4043 90.9961 23.4043C91.3639 23.4043 91.6602 23.2952 91.8848 23.0771C92.1126 22.859 92.277 22.5286 92.3779 22.0859C92.4821 21.6432 92.5342 21.0882 92.5342 20.4209C92.5342 19.7666 92.4837 19.2197 92.3828 18.7803C92.2819 18.3376 92.1191 18.0055 91.8945 17.7842C91.6699 17.5596 91.3704 17.4473 90.9961 17.4473C90.6217 17.4473 90.3223 17.5596 90.0977 17.7842C89.873 18.0055 89.7103 18.3376 89.6094 18.7803C89.5117 19.2197 89.4629 19.7666 89.4629 20.4209ZM99.0771 20.4209C99.0771 21.0003 99.0332 21.5179 98.9453 21.9736C98.8574 22.4294 98.7191 22.8151 98.5303 23.1309C98.3415 23.4466 98.0973 23.6875 97.7979 23.8535C97.4984 24.0163 97.1387 24.0977 96.7188 24.0977C96.1882 24.0977 95.7487 23.9528 95.4004 23.6631C95.0553 23.3734 94.7965 22.9551 94.624 22.4082C94.4548 21.8581 94.3701 21.1956 94.3701 20.4209C94.3701 19.6592 94.4466 19.0049 94.5996 18.458C94.7559 17.9079 95.0065 17.4863 95.3516 17.1934C95.6966 16.8971 96.1523 16.749 96.7188 16.749C97.2559 16.749 97.6986 16.8955 98.0469 17.1885C98.3952 17.4782 98.654 17.8981 98.8232 18.4482C98.9925 18.9951 99.0771 19.6527 99.0771 20.4209ZM95.1855 20.4209C95.1855 21.085 95.236 21.6383 95.3369 22.0811C95.4378 22.5238 95.6006 22.8558 95.8252 23.0771C96.0531 23.2952 96.3509 23.4043 96.7188 23.4043C97.0866 23.4043 97.3828 23.2952 97.6074 23.0771C97.8353 22.859 97.9997 22.5286 98.1006 22.0859C98.2048 21.6432 98.2568 21.0882 98.2568 20.4209C98.2568 19.7666 98.2064 19.2197 98.1055 18.7803C98.0046 18.3376 97.8418 18.0055 97.6172 17.7842C97.3926 17.5596 97.0931 17.4473 96.7188 17.4473C96.3444 17.4473 96.0449 17.5596 95.8203 17.7842C95.5957 18.0055 95.4329 18.3376 95.332 18.7803C95.2344 19.2197 95.1855 19.7666 95.1855 20.4209ZM104.8 20.4209C104.8 21.0003 104.756 21.5179 104.668 21.9736C104.58 22.4294 104.442 22.8151 104.253 23.1309C104.064 23.4466 103.82 23.6875 103.521 23.8535C103.221 24.0163 102.861 24.0977 102.441 24.0977C101.911 24.0977 101.471 23.9528 101.123 23.6631C100.778 23.3734 100.519 22.9551 100.347 22.4082C100.177 21.8581 100.093 21.1956 100.093 20.4209C100.093 19.6592 100.169 19.0049 100.322 18.458C100.479 17.9079 100.729 17.4863 101.074 17.1934C101.419 16.8971 101.875 16.749 102.441 16.749C102.979 16.749 103.421 16.8955 103.77 17.1885C104.118 17.4782 104.377 17.8981 104.546 18.4482C104.715 18.9951 104.8 19.6527 104.8 20.4209ZM100.908 20.4209C100.908 21.085 100.959 21.6383 101.06 22.0811C101.16 22.5238 101.323 22.8558 101.548 23.0771C101.776 23.2952 102.074 23.4043 102.441 23.4043C102.809 23.4043 103.105 23.2952 103.33 23.0771C103.558 22.859 103.722 22.5286 103.823 22.0859C103.927 21.6432 103.979 21.0882 103.979 20.4209C103.979 19.7666 103.929 19.2197 103.828 18.7803C103.727 18.3376 103.564 18.0055 103.34 17.7842C103.115 17.5596 102.816 17.4473 102.441 17.4473C102.067 17.4473 101.768 17.5596 101.543 17.7842C101.318 18.0055 101.156 18.3376 101.055 18.7803C100.957 19.2197 100.908 19.7666 100.908 20.4209ZM108.496 20.1426H110.508V20.8066H108.496V22.877H107.827V20.8066H105.815V20.1426H107.827V18.0625H108.496V20.1426ZM62.0312 38L60 32.6484H60.8691L62.0459 35.8857C62.1273 36.1071 62.2103 36.3512 62.2949 36.6182C62.3796 36.8851 62.4382 37.0999 62.4707 37.2627H62.5049C62.5439 37.0999 62.609 36.8851 62.7002 36.6182C62.7913 36.348 62.8743 36.1038 62.9492 35.8857L64.126 32.6484H64.9951L62.959 38H62.0312ZM67.915 32.5508C68.3708 32.5508 68.7614 32.6517 69.0869 32.8535C69.4124 33.0553 69.6615 33.3385 69.834 33.7031C70.0065 34.0645 70.0928 34.4876 70.0928 34.9727V35.4756H66.3965C66.4062 36.1038 66.5625 36.5824 66.8652 36.9111C67.168 37.2399 67.5944 37.4043 68.1445 37.4043C68.4831 37.4043 68.7826 37.3734 69.043 37.3115C69.3034 37.2497 69.5736 37.1585 69.8535 37.0381V37.751C69.5833 37.8714 69.3148 37.9593 69.0479 38.0146C68.7842 38.07 68.4717 38.0977 68.1104 38.0977C67.596 38.0977 67.1468 37.9935 66.7627 37.7852C66.3818 37.5736 66.0856 37.2643 65.874 36.8574C65.6624 36.4505 65.5566 35.9525 65.5566 35.3633C65.5566 34.7871 65.6527 34.2891 65.8447 33.8691C66.04 33.446 66.3135 33.1204 66.665 32.8926C67.0199 32.6647 67.4365 32.5508 67.915 32.5508ZM67.9053 33.2148C67.4723 33.2148 67.1273 33.3564 66.8701 33.6396C66.613 33.9229 66.46 34.3184 66.4111 34.8262H69.2432C69.2399 34.5072 69.1895 34.2272 69.0918 33.9863C68.9974 33.7422 68.8525 33.5534 68.6572 33.4199C68.4619 33.2832 68.2113 33.2148 67.9053 33.2148ZM74.0039 32.5508C74.6387 32.5508 75.1188 32.707 75.4443 33.0195C75.7699 33.3288 75.9326 33.8268 75.9326 34.5137V38H75.1318V34.5674C75.1318 34.1214 75.0293 33.7878 74.8242 33.5664C74.6224 33.3451 74.3115 33.2344 73.8916 33.2344C73.2992 33.2344 72.8825 33.402 72.6416 33.7373C72.4007 34.0726 72.2803 34.5592 72.2803 35.1973V38H71.4697V32.6484H72.124L72.2461 33.4199H72.29C72.404 33.2311 72.5488 33.0732 72.7246 32.9463C72.9004 32.8161 73.0973 32.7184 73.3154 32.6533C73.5335 32.585 73.763 32.5508 74.0039 32.5508ZM79.3311 37.4336C79.4645 37.4336 79.6012 37.4222 79.7412 37.3994C79.8812 37.3766 79.9951 37.349 80.083 37.3164V37.9463C79.9886 37.9886 79.8568 38.0244 79.6875 38.0537C79.5215 38.083 79.3587 38.0977 79.1992 38.0977C78.916 38.0977 78.6589 38.0488 78.4277 37.9512C78.1966 37.8503 78.0111 37.681 77.8711 37.4434C77.7344 37.2057 77.666 36.877 77.666 36.457V33.2832H76.9043V32.8877L77.6709 32.5703L77.9932 31.4082H78.4814V32.6484H80.0488V33.2832H78.4814V36.4326C78.4814 36.7679 78.5579 37.0186 78.7109 37.1846C78.8672 37.3506 79.0739 37.4336 79.3311 37.4336ZM83.2275 32.5508C83.6833 32.5508 84.0739 32.6517 84.3994 32.8535C84.7249 33.0553 84.974 33.3385 85.1465 33.7031C85.319 34.0645 85.4053 34.4876 85.4053 34.9727V35.4756H81.709C81.7188 36.1038 81.875 36.5824 82.1777 36.9111C82.4805 37.2399 82.9069 37.4043 83.457 37.4043C83.7956 37.4043 84.0951 37.3734 84.3555 37.3115C84.6159 37.2497 84.8861 37.1585 85.166 37.0381V37.751C84.8958 37.8714 84.6273 37.9593 84.3604 38.0146C84.0967 38.07 83.7842 38.0977 83.4229 38.0977C82.9085 38.0977 82.4593 37.9935 82.0752 37.7852C81.6943 37.5736 81.3981 37.2643 81.1865 36.8574C80.9749 36.4505 80.8691 35.9525 80.8691 35.3633C80.8691 34.7871 80.9652 34.2891 81.1572 33.8691C81.3525 33.446 81.626 33.1204 81.9775 32.8926C82.3324 32.6647 82.749 32.5508 83.2275 32.5508ZM83.2178 33.2148C82.7848 33.2148 82.4398 33.3564 82.1826 33.6396C81.9255 33.9229 81.7725 34.3184 81.7236 34.8262H84.5557C84.5524 34.5072 84.502 34.2272 84.4043 33.9863C84.3099 33.7422 84.165 33.5534 83.9697 33.4199C83.7744 33.2832 83.5238 33.2148 83.2178 33.2148ZM90.2441 36.5352C90.2441 36.877 90.1579 37.165 89.9854 37.3994C89.8161 37.6305 89.5719 37.8047 89.2529 37.9219C88.9372 38.0391 88.5596 38.0977 88.1201 38.0977C87.7458 38.0977 87.4219 38.0684 87.1484 38.0098C86.875 37.9512 86.6357 37.8682 86.4307 37.7607V37.0137C86.6488 37.1211 86.9092 37.2188 87.2119 37.3066C87.5146 37.3945 87.8239 37.4385 88.1396 37.4385C88.6019 37.4385 88.9372 37.3636 89.1455 37.2139C89.3538 37.0641 89.458 36.8607 89.458 36.6035C89.458 36.457 89.4157 36.3285 89.3311 36.2178C89.2497 36.1038 89.1113 35.9948 88.916 35.8906C88.7207 35.7832 88.4505 35.666 88.1055 35.5391C87.7637 35.4089 87.4674 35.2803 87.2168 35.1533C86.9694 35.0231 86.7773 34.8652 86.6406 34.6797C86.5072 34.4941 86.4404 34.2533 86.4404 33.957C86.4404 33.5046 86.6227 33.1579 86.9873 32.917C87.3551 32.6729 87.8369 32.5508 88.4326 32.5508C88.7549 32.5508 89.056 32.5833 89.3359 32.6484C89.6191 32.7103 89.8828 32.7949 90.127 32.9023L89.8535 33.5518C89.6322 33.4574 89.3962 33.3776 89.1455 33.3125C88.8949 33.2474 88.6393 33.2148 88.3789 33.2148C88.0046 33.2148 87.7165 33.2767 87.5146 33.4004C87.3161 33.5241 87.2168 33.6934 87.2168 33.9082C87.2168 34.0742 87.2624 34.2109 87.3535 34.3184C87.4479 34.4258 87.5977 34.5267 87.8027 34.6211C88.0078 34.7155 88.278 34.8262 88.6133 34.9531C88.9486 35.0768 89.2383 35.2054 89.4824 35.3389C89.7266 35.4691 89.9137 35.6286 90.0439 35.8174C90.1774 36.0029 90.2441 36.2422 90.2441 36.5352ZM96.2061 32.5508C96.6618 32.5508 97.0524 32.6517 97.3779 32.8535C97.7035 33.0553 97.9525 33.3385 98.125 33.7031C98.2975 34.0645 98.3838 34.4876 98.3838 34.9727V35.4756H94.6875C94.6973 36.1038 94.8535 36.5824 95.1562 36.9111C95.459 37.2399 95.8854 37.4043 96.4355 37.4043C96.7741 37.4043 97.0736 37.3734 97.334 37.3115C97.5944 37.2497 97.8646 37.1585 98.1445 37.0381V37.751C97.8743 37.8714 97.6058 37.9593 97.3389 38.0146C97.0752 38.07 96.7627 38.0977 96.4014 38.0977C95.887 38.0977 95.4378 37.9935 95.0537 37.7852C94.6729 37.5736 94.3766 37.2643 94.165 36.8574C93.9535 36.4505 93.8477 35.9525 93.8477 35.3633C93.8477 34.7871 93.9437 34.2891 94.1357 33.8691C94.3311 33.446 94.6045 33.1204 94.9561 32.8926C95.3109 32.6647 95.7275 32.5508 96.2061 32.5508ZM96.1963 33.2148C95.7633 33.2148 95.4183 33.3564 95.1611 33.6396C94.904 33.9229 94.751 34.3184 94.7021 34.8262H97.5342C97.5309 34.5072 97.4805 34.2272 97.3828 33.9863C97.2884 33.7422 97.1436 33.5534 96.9482 33.4199C96.7529 33.2832 96.5023 33.2148 96.1963 33.2148ZM102.295 32.5508C102.93 32.5508 103.41 32.707 103.735 33.0195C104.061 33.3288 104.224 33.8268 104.224 34.5137V38H103.423V34.5674C103.423 34.1214 103.32 33.7878 103.115 33.5664C102.913 33.3451 102.603 33.2344 102.183 33.2344C101.59 33.2344 101.174 33.402 100.933 33.7373C100.692 34.0726 100.571 34.5592 100.571 35.1973V38H99.7607V32.6484H100.415L100.537 33.4199H100.581C100.695 33.2311 100.84 33.0732 101.016 32.9463C101.191 32.8161 101.388 32.7184 101.606 32.6533C101.825 32.585 102.054 32.5508 102.295 32.5508ZM112.808 38H108.13V37.3213L110.039 35.3828C110.394 35.0247 110.692 34.7057 110.933 34.4258C111.177 34.1458 111.362 33.8708 111.489 33.6006C111.616 33.3271 111.68 33.0277 111.68 32.7021C111.68 32.2985 111.559 31.9909 111.318 31.7793C111.081 31.5645 110.767 31.457 110.376 31.457C110.034 31.457 109.731 31.5156 109.468 31.6328C109.204 31.75 108.934 31.916 108.657 32.1309L108.223 31.584C108.411 31.4245 108.617 31.2829 108.838 31.1592C109.062 31.0355 109.302 30.9378 109.556 30.8662C109.813 30.7946 110.086 30.7588 110.376 30.7588C110.815 30.7588 111.195 30.8353 111.514 30.9883C111.833 31.1413 112.078 31.3594 112.251 31.6426C112.427 31.9258 112.515 32.2627 112.515 32.6533C112.515 33.0309 112.44 33.3825 112.29 33.708C112.14 34.0303 111.93 34.3509 111.66 34.6699C111.39 34.9857 111.074 35.321 110.713 35.6758L109.16 37.2236V37.2578H112.808V38ZM118.569 34.4209C118.569 35.0003 118.525 35.5179 118.438 35.9736C118.35 36.4294 118.211 36.8151 118.022 37.1309C117.834 37.4466 117.59 37.6875 117.29 37.8535C116.991 38.0163 116.631 38.0977 116.211 38.0977C115.68 38.0977 115.241 37.9528 114.893 37.6631C114.548 37.3734 114.289 36.9551 114.116 36.4082C113.947 35.8581 113.862 35.1956 113.862 34.4209C113.862 33.6592 113.939 33.0049 114.092 32.458C114.248 31.9079 114.499 31.4863 114.844 31.1934C115.189 30.8971 115.645 30.749 116.211 30.749C116.748 30.749 117.191 30.8955 117.539 31.1885C117.887 31.4782 118.146 31.8981 118.315 32.4482C118.485 32.9951 118.569 33.6527 118.569 34.4209ZM114.678 34.4209C114.678 35.085 114.728 35.6383 114.829 36.0811C114.93 36.5238 115.093 36.8558 115.317 37.0771C115.545 37.2952 115.843 37.4043 116.211 37.4043C116.579 37.4043 116.875 37.2952 117.1 37.0771C117.327 36.859 117.492 36.5286 117.593 36.0859C117.697 35.6432 117.749 35.0882 117.749 34.4209C117.749 33.7666 117.699 33.2197 117.598 32.7803C117.497 32.3376 117.334 32.0055 117.109 31.7842C116.885 31.5596 116.585 31.4473 116.211 31.4473C115.837 31.4473 115.537 31.5596 115.312 31.7842C115.088 32.0055 114.925 32.3376 114.824 32.7803C114.727 33.2197 114.678 33.7666 114.678 34.4209ZM124.253 38H119.575V37.3213L121.484 35.3828C121.839 35.0247 122.137 34.7057 122.378 34.4258C122.622 34.1458 122.808 33.8708 122.935 33.6006C123.062 33.3271 123.125 33.0277 123.125 32.7021C123.125 32.2985 123.005 31.9909 122.764 31.7793C122.526 31.5645 122.212 31.457 121.821 31.457C121.479 31.457 121.177 31.5156 120.913 31.6328C120.649 31.75 120.379 31.916 120.103 32.1309L119.668 31.584C119.857 31.4245 120.062 31.2829 120.283 31.1592C120.508 31.0355 120.747 30.9378 121.001 30.8662C121.258 30.7946 121.532 30.7588 121.821 30.7588C122.261 30.7588 122.64 30.8353 122.959 30.9883C123.278 31.1413 123.524 31.3594 123.696 31.6426C123.872 31.9258 123.96 32.2627 123.96 32.6533C123.96 33.0309 123.885 33.3825 123.735 33.708C123.586 34.0303 123.376 34.3509 123.105 34.6699C122.835 34.9857 122.52 35.321 122.158 35.6758L120.605 37.2236V37.2578H124.253V38ZM128.315 38H127.524V32.9414C127.524 32.7493 127.524 32.585 127.524 32.4482C127.528 32.3083 127.531 32.1813 127.534 32.0674C127.541 31.9502 127.549 31.8314 127.559 31.7109C127.458 31.8151 127.363 31.9046 127.275 31.9795C127.188 32.0511 127.078 32.1406 126.948 32.248L126.133 32.9023L125.708 32.3506L127.642 30.8613H128.315V38Z" fill="#1E323C"/>
</svg>
